<svg width="48" height="48" viewBox="0 0 48 48" fill="none" xmlns="http://www.w3.org/2000/svg">
<rect x="0.5" y="0.5" width="47" height="47" rx="23.5" fill="white"/>
<rect x="0.5" y="0.5" width="47" height="47" rx="23.5" stroke="#42662B"/>
<path d="M30.7074 24.7074L20.7074 34.7074C20.6145 34.8004 20.5042 34.8741 20.3828 34.9243C20.2614 34.9746 20.1313 35.0005 19.9999 35.0005C19.8686 35.0005 19.7384 34.9746 19.617 34.9243C19.4957 34.8741 19.3854 34.8004 19.2924 34.7074C19.1995 34.6145 19.1258 34.5042 19.0756 34.3828C19.0253 34.2614 18.9994 34.1313 18.9994 33.9999C18.9994 33.8686 19.0253 33.7384 19.0756 33.6171C19.1258 33.4957 19.1995 33.3854 19.2924 33.2924L28.5862 23.9999L19.2924 14.7074C19.1048 14.5198 18.9994 14.2653 18.9994 13.9999C18.9994 13.7346 19.1048 13.4801 19.2924 13.2924C19.4801 13.1048 19.7346 12.9994 19.9999 12.9994C20.2653 12.9994 20.5198 13.1048 20.7074 13.2924L30.7074 23.2924C30.8004 23.3853 30.8742 23.4956 30.9245 23.617C30.9748 23.7384 31.0007 23.8685 31.0007 23.9999C31.0007 24.1314 30.9748 24.2615 30.9245 24.3829C30.8742 24.5043 30.8004 24.6146 30.7074 24.7074Z" fill="#42662B"/>
</svg>
