<svg width="48" height="48" viewBox="0 0 48 48" fill="none" xmlns="http://www.w3.org/2000/svg">
<rect x="0.5" y="0.5" width="47" height="47" rx="23.5" fill="white"/>
<rect x="0.5" y="0.5" width="47" height="47" rx="23.5" stroke="black"/>
<path d="M28.7083 33.2925C28.8012 33.3854 28.8749 33.4957 28.9252 33.6171C28.9755 33.7385 29.0013 33.8686 29.0013 34C29.0013 34.1314 28.9755 34.2615 28.9252 34.3829C28.8749 34.5043 28.8012 34.6146 28.7083 34.7075C28.6154 34.8004 28.5051 34.8741 28.3837 34.9244C28.2623 34.9747 28.1322 35.0006 28.0008 35.0006C27.8694 35.0006 27.7393 34.9747 27.6179 34.9244C27.4965 34.8741 27.3862 34.8004 27.2933 34.7075L17.2933 24.7075C17.2003 24.6146 17.1266 24.5043 17.0762 24.3829C17.0259 24.2615 17 24.1314 17 24C17 23.8686 17.0259 23.7385 17.0762 23.6171C17.1266 23.4957 17.2003 23.3854 17.2933 23.2925L27.2933 13.2925C27.4809 13.1049 27.7354 12.9995 28.0008 12.9995C28.2662 12.9995 28.5206 13.1049 28.7083 13.2925C28.8959 13.4801 29.0013 13.7346 29.0013 14C29.0013 14.2654 28.8959 14.5199 28.7083 14.7075L19.4145 24L28.7083 33.2925Z" fill="black"/>
</svg>
