<svg width="48" height="48" viewBox="0 0 48 48" fill="none" xmlns="http://www.w3.org/2000/svg">
<rect x="0.5" y="0.5" width="47" height="47" rx="23.5" fill="white"/>
<rect x="0.5" y="0.5" width="47" height="47" rx="23.5" stroke="#42662B"/>
<path d="M28.7075 33.2924C28.8004 33.3854 28.8741 33.4957 28.9244 33.6171C28.9747 33.7384 29.0006 33.8686 29.0006 33.9999C29.0006 34.1313 28.9747 34.2614 28.9244 34.3828C28.8741 34.5042 28.8004 34.6145 28.7075 34.7074C28.6146 34.8004 28.5043 34.8741 28.3829 34.9243C28.2615 34.9746 28.1314 35.0005 28 35.0005C27.8686 35.0005 27.7385 34.9746 27.6171 34.9243C27.4957 34.8741 27.3854 34.8004 27.2925 34.7074L17.2925 24.7074C17.1995 24.6146 17.1258 24.5043 17.0754 24.3829C17.0251 24.2615 16.9992 24.1314 16.9992 23.9999C16.9992 23.8685 17.0251 23.7384 17.0754 23.617C17.1258 23.4956 17.1995 23.3853 17.2925 23.2924L27.2925 13.2924C27.4801 13.1048 27.7346 12.9994 28 12.9994C28.2654 12.9994 28.5199 13.1048 28.7075 13.2924C28.8951 13.4801 29.0006 13.7346 29.0006 13.9999C29.0006 14.2653 28.8951 14.5198 28.7075 14.7074L19.4137 23.9999L28.7075 33.2924Z" fill="#42662B"/>
</svg>
