<svg width="48" height="48" viewBox="0 0 48 48" fill="none" xmlns="http://www.w3.org/2000/svg">
<rect x="0.5" y="0.5" width="47" height="47" rx="23.5" fill="white"/>
<rect x="0.5" y="0.5" width="47" height="47" rx="23.5" stroke="black"/>
<path d="M30.7081 24.7075L20.7081 34.7075C20.6151 34.8004 20.5048 34.8741 20.3835 34.9244C20.2621 34.9747 20.132 35.0006 20.0006 35.0006C19.8692 35.0006 19.7391 34.9747 19.6177 34.9244C19.4963 34.8741 19.386 34.8004 19.2931 34.7075C19.2001 34.6146 19.1264 34.5043 19.0762 34.3829C19.0259 34.2615 19 34.1314 19 34C19 33.8686 19.0259 33.7385 19.0762 33.6171C19.1264 33.4957 19.2001 33.3854 19.2931 33.2925L28.5868 24L19.2931 14.7075C19.1054 14.5199 19 14.2654 19 14C19 13.7346 19.1054 13.4801 19.2931 13.2925C19.4807 13.1049 19.7352 12.9995 20.0006 12.9995C20.2659 12.9995 20.5204 13.1049 20.7081 13.2925L30.7081 23.2925C30.801 23.3854 30.8748 23.4957 30.9251 23.6171C30.9754 23.7385 31.0013 23.8686 31.0013 24C31.0013 24.1314 30.9754 24.2615 30.9251 24.3829C30.8748 24.5043 30.801 24.6146 30.7081 24.7075Z" fill="black"/>
</svg>
