<svg width="20" height="20" viewBox="0 0 20 20" fill="none" xmlns="http://www.w3.org/2000/svg">
<path d="M16.9133 8.16328L10.6633 14.4133C10.5762 14.5007 10.4727 14.57 10.3588 14.6173C10.2448 14.6647 10.1226 14.689 9.99925 14.689C9.87586 14.689 9.75368 14.6647 9.63973 14.6173C9.52577 14.57 9.42228 14.5007 9.33518 14.4133L3.08518 8.16328C2.90906 7.98716 2.81012 7.74829 2.81012 7.49922C2.81012 7.25015 2.90906 7.01128 3.08518 6.83516C3.2613 6.65904 3.50017 6.56009 3.74925 6.56009C3.99832 6.56009 4.23719 6.65904 4.41331 6.83516L10 12.4219L15.5867 6.83438C15.7629 6.65825 16.0017 6.55931 16.2508 6.55931C16.4999 6.55931 16.7387 6.65825 16.9149 6.83438C17.091 7.0105 17.1899 7.24937 17.1899 7.49844C17.1899 7.74751 17.091 7.98638 16.9149 8.1625L16.9133 8.16328Z" fill="black"/>
</svg>
