<svg width="24" height="24" viewBox="0 0 24 24" fill="none" xmlns="http://www.w3.org/2000/svg">
<path d="M17.031 12.5306L9.53104 20.0306C9.46136 20.1003 9.37863 20.1556 9.28759 20.1933C9.19654 20.231 9.09896 20.2504 9.00042 20.2504C8.90187 20.2504 8.80429 20.231 8.71324 20.1933C8.6222 20.1556 8.53947 20.1003 8.46979 20.0306C8.40011 19.9609 8.34483 19.8782 8.30712 19.7872C8.26941 19.6961 8.25 19.5986 8.25 19.5C8.25 19.4015 8.26941 19.3039 8.30712 19.2128C8.34483 19.1218 8.40011 19.0391 8.46979 18.9694L15.4401 12L8.46979 5.03063C8.32906 4.8899 8.25 4.69903 8.25 4.50001C8.25 4.30098 8.32906 4.11011 8.46979 3.96938C8.61052 3.82865 8.80139 3.74959 9.00042 3.74959C9.19944 3.74959 9.39031 3.82865 9.53104 3.96938L17.031 11.4694C17.1008 11.539 17.1561 11.6218 17.1938 11.7128C17.2316 11.8038 17.251 11.9014 17.251 12C17.251 12.0986 17.2316 12.1962 17.1938 12.2872C17.1561 12.3783 17.1008 12.461 17.031 12.5306Z" fill="black"/>
</svg>
