<svg width="24" height="25" viewBox="0 0 24 25" fill="none" xmlns="http://www.w3.org/2000/svg">
<path d="M20.2959 16.2959C20.1914 16.4008 20.0672 16.484 19.9304 16.5408C19.7937 16.5976 19.6471 16.6268 19.499 16.6268C19.351 16.6268 19.2043 16.5976 19.0676 16.5408C18.9309 16.484 18.8067 16.4008 18.7021 16.2959L12 9.59373L5.2959 16.2959C5.08455 16.5073 4.79791 16.626 4.49902 16.626C4.20014 16.626 3.91349 16.5073 3.70215 16.2959C3.4908 16.0846 3.37207 15.7979 3.37207 15.499C3.37207 15.2002 3.4908 14.9135 3.70215 14.7022L11.2021 7.20216C11.3067 7.09728 11.4309 7.01407 11.5676 6.95729C11.7043 6.90051 11.851 6.87128 11.999 6.87128C12.1471 6.87128 12.2937 6.90051 12.4304 6.95729C12.5672 7.01407 12.6914 7.09728 12.7959 7.20216L20.2959 14.7022C20.4008 14.8067 20.484 14.9309 20.5408 15.0676C20.5976 15.2044 20.6268 15.351 20.6268 15.499C20.6268 15.6471 20.5976 15.7937 20.5408 15.9305C20.484 16.0672 20.4008 16.1914 20.2959 16.2959Z" fill="black"/>
</svg>
