<svg width="16" height="16" viewBox="0 0 16 16" fill="none" xmlns="http://www.w3.org/2000/svg">
<path d="M12.75 8C12.75 8.19891 12.671 8.38968 12.5303 8.53033C12.3897 8.67098 12.1989 8.75 12 8.75H4C3.80109 8.75 3.61032 8.67098 3.46967 8.53033C3.32902 8.38968 3.25 8.19891 3.25 8C3.25 7.80109 3.32902 7.61032 3.46967 7.46967C3.61032 7.32902 3.80109 7.25 4 7.25H12C12.1989 7.25 12.3897 7.32902 12.5303 7.46967C12.671 7.61032 12.75 7.80109 12.75 8ZM14.5 4.25H1.5C1.30109 4.25 1.11032 4.32902 0.96967 4.46967C0.829018 4.61032 0.75 4.80109 0.75 5C0.75 5.19891 0.829018 5.38968 0.96967 5.53033C1.11032 5.67098 1.30109 5.75 1.5 5.75H14.5C14.6989 5.75 14.8897 5.67098 15.0303 5.53033C15.171 5.38968 15.25 5.19891 15.25 5C15.25 4.80109 15.171 4.61032 15.0303 4.46967C14.8897 4.32902 14.6989 4.25 14.5 4.25ZM9.5 10.25H6.5C6.30109 10.25 6.11032 10.329 5.96967 10.4697C5.82902 10.6103 5.75 10.8011 5.75 11C5.75 11.1989 5.82902 11.3897 5.96967 11.5303C6.11032 11.671 6.30109 11.75 6.5 11.75H9.5C9.69891 11.75 9.88968 11.671 10.0303 11.5303C10.171 11.3897 10.25 11.1989 10.25 11C10.25 10.8011 10.171 10.6103 10.0303 10.4697C9.88968 10.329 9.69891 10.25 9.5 10.25Z" fill="black"/>
</svg>
