<svg xmlns="http://www.w3.org/2000/svg" width="20" height="20" viewBox="0 0 20 20" fill="none">
  <path d="M5.7666 2.8667C7.03449 2.86511 8.2516 3.36698 9.14941 4.26221V4.26318L9.15137 4.26416L9.95801 5.01318L10 5.05225L10.043 5.01318L10.8486 4.26416L10.8506 4.26318C11.7488 3.37295 12.9629 2.87459 14.2275 2.87646C15.4832 2.87839 16.6875 3.37327 17.5811 4.25439V4.25732L17.5996 4.27588C18.0437 4.71982 18.3963 5.24656 18.6367 5.82666C18.8771 6.40679 19.0009 7.02878 19.001 7.65674C19.001 8.28469 18.877 8.90668 18.6367 9.48682C18.3963 10.067 18.0438 10.5946 17.5996 11.0386L10.624 18.1167C10.5426 18.1993 10.4449 18.2643 10.3379 18.3091C10.2309 18.3539 10.116 18.3774 10 18.3774C9.88407 18.3774 9.76905 18.3539 9.66211 18.3091C9.55532 18.2643 9.45824 18.1992 9.37695 18.1167L2.39648 11.0347L2.39551 11.0337C1.49793 10.1382 0.992894 8.9227 0.991211 7.65479C0.98962 6.38659 1.49207 5.16887 2.3877 4.271C3.28321 3.37341 4.49869 2.86838 5.7666 2.8667ZM14.2207 4.62549C13.8226 4.62501 13.4276 4.70308 13.0596 4.85498C12.7838 4.96884 12.5269 5.1228 12.2969 5.31104L12.0752 5.51123C12.0671 5.5193 12.0614 5.52509 12.0557 5.52979L12.0527 5.53271L10.5967 6.88818C10.4347 7.03908 10.2214 7.12354 10 7.12354C9.77875 7.12346 9.56619 7.039 9.4043 6.88818L7.94727 5.53271L7.94434 5.52979L7.9248 5.51123C7.35604 4.94482 6.58589 4.62673 5.7832 4.62744C4.98049 4.62827 4.21025 4.94762 3.64258 5.51514C3.07491 6.08281 2.75575 6.85296 2.75488 7.65576C2.75405 8.45861 3.07118 9.22947 3.6377 9.79834V9.79736L9.95605 16.2075L10 16.2534L10.0449 16.2075L16.3604 9.80322L16.4648 9.69678H16.4541C16.6894 9.4386 16.8813 9.14404 17.0156 8.8208C17.1684 8.45318 17.2476 8.05875 17.248 7.66064C17.2485 7.26269 17.1704 6.86834 17.0186 6.50049C16.8667 6.13263 16.6443 5.79787 16.3633 5.51611C16.0821 5.23427 15.7475 5.0107 15.3799 4.85791C15.0125 4.70525 14.6186 4.62601 14.2207 4.62549Z" fill="black" stroke="black" stroke-width="0.125"/>
</svg>