<svg xmlns="http://www.w3.org/2000/svg" width="20" height="20" viewBox="0 0 20 20" fill="none">
  <path d="M7.8125 16.875C7.8125 17.184 7.72086 17.4861 7.54917 17.7431C7.37748 18 7.13345 18.2003 6.84794 18.3186C6.56243 18.4368 6.24827 18.4678 5.94517 18.4075C5.64208 18.3472 5.36367 18.1984 5.14515 17.9799C4.92663 17.7613 4.77781 17.4829 4.71752 17.1798C4.65723 16.8767 4.68818 16.5626 4.80644 16.2771C4.9247 15.9915 5.12497 15.7475 5.38192 15.5758C5.63887 15.4041 5.94097 15.3125 6.25 15.3125C6.6644 15.3125 7.06183 15.4771 7.35485 15.7701C7.64788 16.0632 7.8125 16.4606 7.8125 16.875ZM14.375 15.3125C14.066 15.3125 13.7639 15.4041 13.5069 15.5758C13.25 15.7475 13.0497 15.9915 12.9314 16.2771C12.8132 16.5626 12.7822 16.8767 12.8425 17.1798C12.9028 17.4829 13.0516 17.7613 13.2701 17.9799C13.4887 18.1984 13.7671 18.3472 14.0702 18.4075C14.3733 18.4678 14.6874 18.4368 14.9729 18.3186C15.2585 18.2003 15.5025 18 15.6742 17.7431C15.8459 17.4861 15.9375 17.184 15.9375 16.875C15.9375 16.4606 15.7729 16.0632 15.4799 15.7701C15.1868 15.4771 14.7894 15.3125 14.375 15.3125ZM18.3961 5.90078L16.2641 12.8305C16.1279 13.2786 15.8509 13.6709 15.4742 13.9492C15.0974 14.2274 14.641 14.3767 14.1727 14.375H6.47891C6.00383 14.3735 5.54205 14.218 5.16275 13.932C4.78346 13.6459 4.50707 13.2446 4.375 12.7883L1.70391 3.4375H0.9375C0.68886 3.4375 0.450403 3.33873 0.274587 3.16291C0.098772 2.9871 0 2.74864 0 2.5C0 2.25136 0.098772 2.0129 0.274587 1.83709C0.450403 1.66127 0.68886 1.5625 0.9375 1.5625H1.93906C2.27839 1.56355 2.60824 1.6746 2.87911 1.87898C3.14998 2.08337 3.34728 2.37008 3.44141 2.69609L4.01094 4.6875H17.5C17.6467 4.68749 17.7914 4.72191 17.9224 4.78801C18.0534 4.8541 18.167 4.95001 18.2542 5.06803C18.3414 5.18605 18.3996 5.32288 18.4243 5.46752C18.4489 5.61215 18.4393 5.76055 18.3961 5.90078ZM16.2305 6.5625H4.54609L6.17813 12.2734C6.19681 12.3388 6.23628 12.3962 6.29056 12.4371C6.34483 12.478 6.41096 12.5001 6.47891 12.5H14.1727C14.2395 12.5001 14.3047 12.4788 14.3586 12.4391C14.4124 12.3995 14.4521 12.3436 14.4719 12.2797L16.2305 6.5625Z" fill="white"/>
</svg>