<svg width="16" height="16" viewBox="0 0 16 16" fill="none" xmlns="http://www.w3.org/2000/svg">
<rect width="16" height="16" fill="#4F593E"/>
<path d="M12.9922 7.36147L10.8781 9.20647L11.5114 11.9533C11.5449 12.0969 11.5353 12.2472 11.4839 12.3854C11.4324 12.5236 11.3414 12.6436 11.2222 12.7303C11.1029 12.8171 10.9607 12.8667 10.8134 12.8731C10.6661 12.8795 10.5202 12.8423 10.3939 12.7662L7.9981 11.313L5.60747 12.7662C5.48118 12.8423 5.33525 12.8795 5.18793 12.8731C5.04061 12.8667 4.89844 12.8171 4.77919 12.7303C4.65994 12.6436 4.56891 12.5236 4.51746 12.3854C4.46602 12.2472 4.45646 12.0969 4.48997 11.9533L5.12232 9.20928L3.00779 7.36147C2.89595 7.26501 2.81507 7.13768 2.77531 6.99544C2.73555 6.85321 2.73867 6.7024 2.78427 6.56193C2.82988 6.42145 2.91594 6.29757 3.03167 6.20582C3.1474 6.11407 3.28765 6.05852 3.43482 6.04616L6.22201 5.80475L7.30997 3.20975C7.36679 3.07359 7.46262 2.95728 7.5854 2.87546C7.70819 2.79365 7.85243 2.75 7.99997 2.75C8.14752 2.75 8.29176 2.79365 8.41454 2.87546C8.53733 2.95728 8.63316 3.07359 8.68997 3.20975L9.78122 5.80475L12.5675 6.04616C12.7146 6.05852 12.8549 6.11407 12.9706 6.20582C13.0863 6.29757 13.1724 6.42145 13.218 6.56193C13.2636 6.7024 13.2667 6.85321 13.227 6.99544C13.1872 7.13768 13.1063 7.26501 12.9945 7.36147H12.9922Z" fill="white"/>
</svg>
