<svg width="25" height="24" viewBox="0 0 25 24" fill="none" xmlns="http://www.w3.org/2000/svg">
<g clip-path="url(#clip0_4707_1145)">
<path d="M9.52539 22C10.0777 22 10.5254 21.5523 10.5254 21C10.5254 20.4477 10.0777 20 9.52539 20C8.97311 20 8.52539 20.4477 8.52539 21C8.52539 21.5523 8.97311 22 9.52539 22Z" stroke="#42662B" stroke-width="2" stroke-linecap="round" stroke-linejoin="round"/>
<path d="M20.5254 22C21.0777 22 21.5254 21.5523 21.5254 21C21.5254 20.4477 21.0777 20 20.5254 20C19.9731 20 19.5254 20.4477 19.5254 21C19.5254 21.5523 19.9731 22 20.5254 22Z" stroke="#42662B" stroke-width="2" stroke-linecap="round" stroke-linejoin="round"/>
<path d="M1.52539 1H5.52539L8.20539 14.39C8.29683 14.8504 8.5473 15.264 8.91294 15.5583C9.27857 15.8526 9.73609 16.009 10.2054 16H19.9254C20.3947 16.009 20.8522 15.8526 21.2178 15.5583C21.5835 15.264 21.8339 14.8504 21.9254 14.39L23.5254 6H6.52539" fill="#42662B"/>
<path d="M1.52539 1H5.52539L8.20539 14.39C8.29684 14.8504 8.5473 15.264 8.91294 15.5583C9.27857 15.8526 9.73609 16.009 10.2054 16H19.9254C20.3947 16.009 20.8522 15.8526 21.2178 15.5583C21.5835 15.264 21.8339 14.8504 21.9254 14.39L23.5254 6H6.52539" stroke="#42662B" stroke-width="2" stroke-linecap="round" stroke-linejoin="round"/>
</g>
<defs>
<clipPath id="clip0_4707_1145">
<rect width="24" height="24" fill="white" transform="translate(0.525391)"/>
</clipPath>
</defs>
</svg>
