<svg width="16" height="16" viewBox="0 0 16 16" fill="none" xmlns="http://www.w3.org/2000/svg">
<rect width="16" height="16" fill="black"/>
<path d="M12.9921 7.36147L10.878 9.20647L11.5113 11.9533C11.5448 12.0969 11.5353 12.2472 11.4838 12.3854C11.4324 12.5236 11.3414 12.6436 11.2221 12.7303C11.1029 12.8171 10.9607 12.8667 10.8134 12.8731C10.666 12.8795 10.5201 12.8423 10.3938 12.7662L7.99804 11.313L5.60741 12.7662C5.48112 12.8423 5.33519 12.8795 5.18787 12.8731C5.04055 12.8667 4.89838 12.8171 4.77913 12.7303C4.65988 12.6436 4.56884 12.5236 4.5174 12.3854C4.46596 12.2472 4.4564 12.0969 4.48991 11.9533L5.12226 9.20928L3.00773 7.36147C2.89589 7.26501 2.81501 7.13768 2.77525 6.99544C2.73549 6.85321 2.73861 6.7024 2.78421 6.56193C2.82982 6.42145 2.91588 6.29757 3.03161 6.20582C3.14734 6.11407 3.28759 6.05852 3.43476 6.04616L6.22194 5.80475L7.30991 3.20975C7.36673 3.07359 7.46256 2.95728 7.58534 2.87546C7.70813 2.79365 7.85237 2.75 7.99991 2.75C8.14746 2.75 8.2917 2.79365 8.41448 2.87546C8.53727 2.95728 8.6331 3.07359 8.68991 3.20975L9.78116 5.80475L12.5674 6.04616C12.7146 6.05852 12.8548 6.11407 12.9706 6.20582C13.0863 6.29757 13.1724 6.42145 13.218 6.56193C13.2636 6.7024 13.2667 6.85321 13.2269 6.99544C13.1872 7.13768 13.1063 7.26501 12.9944 7.36147H12.9921Z" fill="white"/>
</svg>
