<svg width="16" height="16" viewBox="0 0 16 16" fill="none" xmlns="http://www.w3.org/2000/svg">
<rect width="16" height="16" fill="#42662B"/>
<path d="M12.9926 7.36147L10.8785 9.20647L11.5118 11.9533C11.5453 12.0969 11.5358 12.2472 11.4843 12.3854C11.4329 12.5236 11.3418 12.6436 11.2226 12.7303C11.1033 12.8171 10.9612 12.8667 10.8139 12.8731C10.6665 12.8795 10.5206 12.8423 10.3943 12.7662L7.99853 11.313L5.6079 12.7662C5.48161 12.8423 5.33568 12.8795 5.18836 12.8731C5.04104 12.8667 4.89887 12.8171 4.77962 12.7303C4.66037 12.6436 4.56933 12.5236 4.51789 12.3854C4.46645 12.2472 4.45689 12.0969 4.4904 11.9533L5.12275 9.20928L3.00821 7.36147C2.89637 7.26501 2.8155 7.13768 2.77574 6.99544C2.73598 6.85321 2.73909 6.7024 2.7847 6.56193C2.83031 6.42145 2.91637 6.29757 3.0321 6.20582C3.14783 6.11407 3.28807 6.05852 3.43524 6.04616L6.22243 5.80475L7.3104 3.20975C7.36722 3.07359 7.46305 2.95728 7.58583 2.87546C7.70862 2.79365 7.85286 2.75 8.0004 2.75C8.14794 2.75 8.29219 2.79365 8.41497 2.87546C8.53775 2.95728 8.63359 3.07359 8.6904 3.20975L9.78165 5.80475L12.5679 6.04616C12.7151 6.05852 12.8553 6.11407 12.971 6.20582C13.0868 6.29757 13.1728 6.42145 13.2184 6.56193C13.2641 6.7024 13.2672 6.85321 13.2274 6.99544C13.1876 7.13768 13.1068 7.26501 12.9949 7.36147H12.9926Z" fill="white"/>
</svg>
